<svg width="81.193" xmlns="http://www.w3.org/2000/svg" height="76.596" id="screenshot-9f4d6047-89f9-80da-8007-2024b0d98eda" viewBox="1806 -443 81.193 76.596" xmlns:xlink="http://www.w3.org/1999/xlink" fill="none" version="1.1"><g id="shape-9f4d6047-89f9-80da-8007-2024b0d98eda"><g class="fills" id="fills-9f4d6047-89f9-80da-8007-2024b0d98eda"><path d="M1836.330078125,-442.97021484375C1837.110595703125,-443.0303955078125,1838.4696044921875,-442.98077392578125,1839.2840576171875,-442.98077392578125L1845.173583984375,-442.9748840332031L1851.9637451171875,-442.9795837402344C1853.5386962890625,-442.98150634765625,1855.05712890625,-442.9964904785156,1856.629638671875,-442.92138671875C1861.376708984375,-442.6947937011719,1862.5267333984375,-438.3868103027344,1864.4603271484375,-434.24658203125C1864.835693359375,-433.4775390625,1865.175537109375,-432.5401306152344,1865.6798095703125,-431.87640380859375C1866.280517578125,-431.0860290527344,1867.7095947265625,-431.2832336425781,1868.5509033203125,-431.2663269042969C1869.2366943359375,-431.2525329589844,1869.9322509765625,-431.2813720703125,1870.6187744140625,-431.2713928222656C1870.5841064453125,-432.7967529296875,1870.199462890625,-435.4581604003906,1872.0950927734375,-435.4295959472656C1873.9090576171875,-435.402099609375,1875.7532958984375,-435.5885314941406,1877.560791015625,-435.39801025390625C1877.83544921875,-435.3265686035156,1878.2294921875,-435.0851135253906,1878.421142578125,-434.8615417480469C1879.0257568359375,-434.1570129394531,1878.8271484375,-432.3372497558594,1878.8189697265625,-431.3411560058594C1881.1131591796875,-431.00006103515625,1882.8974609375,-429.9152526855469,1884.511474609375,-427.9670104980469C1885.7841796875,-426.423828125,1886.643798828125,-424.4845275878906,1886.9871826171875,-422.38446044921875C1887.272705078125,-420.5770263671875,1887.1776123046875,-418.0245056152344,1887.1776123046875,-416.1192626953125L1887.17822265625,-407.1688537597656L1887.1805419921875,-387.6612548828125C1887.18115234375,-384.39166259765625,1887.181640625,-381.140869140625,1887.18115234375,-377.8519287109375C1887.18115234375,-372.66845703125,1883.92529296875,-368.0452880859375,1879.6314697265625,-366.7960205078125C1878.065185546875,-366.340087890625,1876.3695068359375,-366.4324951171875,1874.7578125,-366.4359130859375L1870.47705078125,-366.444580078125C1867.1234130859375,-366.447998046875,1863.576416015625,-366.366943359375,1860.2379150390625,-366.44921875C1857.0655517578125,-366.35357666015625,1853.4822998046875,-366.4385986328125,1850.285888671875,-366.4378662109375L1830.43896484375,-366.4405517578125L1820.477783203125,-366.4432373046875C1816.5025634765625,-366.4378662109375,1812.6981201171875,-365.876220703125,1809.4324951171875,-369.1551513671875C1805.9189453125,-372.68310546875,1806.051025390625,-376.09661865234375,1806.050537109375,-380.998291015625L1806.0484619140625,-387.4771728515625L1806.0460205078125,-405.54327392578125L1806.0423583984375,-415.74359130859375C1806.0177001953125,-420.3807373046875,1805.55859375,-423.99334716796875,1808.3577880859375,-427.7643127441406C1809.950927734375,-429.8834228515625,1812.19091796875,-431.1985168457031,1814.603515625,-431.4310607910156C1815.4632568359375,-431.5186767578125,1816.9295654296875,-431.4687194824219,1817.8248291015625,-431.4690246582031L1823.35400390625,-431.4720153808594C1824.4395751953125,-431.47174072265625,1826.8349609375,-431.18109130859375,1827.5419921875,-432.2195129394531C1830.4910888671875,-436.5502624511719,1830.595947265625,-442.47760009765625,1836.330078125,-442.97021484375ZM1857.1358642578125,-370.38031005859375L1871.403564453125,-370.36553955078125L1875.3790283203125,-370.376220703125C1876.38720703125,-370.381591796875,1877.6724853515625,-370.33880615234375,1878.633056640625,-370.5723876953125C1879.865234375,-370.8790283203125,1880.9979248046875,-371.5865478515625,1881.89794921875,-372.6121826171875C1884.183837890625,-375.2518310546875,1883.8055419921875,-378.5006103515625,1883.8045654296875,-381.9381103515625L1883.7974853515625,-390.1482849121094L1883.798095703125,-419.4078063964844C1883.7935791015625,-421.05224609375,1883.749755859375,-422.1467590332031,1883.0633544921875,-423.62591552734375C1881.1199951171875,-427.8128967285156,1877.93798828125,-427.4764099121094,1874.409912109375,-427.4427795410156L1868.7081298828125,-427.3560485839844C1865.9515380859375,-427.3460388183594,1863.9759521484375,-427.1739807128906,1862.333251953125,-430.4027099609375C1861.490234375,-432.0584411621094,1860.79296875,-433.81317138671875,1860.0189208984375,-435.513671875C1858.7843017578125,-438.441650390625,1858.2384033203125,-439.02862548828125,1855.409423828125,-439.0282897949219L1836.8062744140625,-439.0186767578125C1834.3712158203125,-438.9891357421875,1834.3846435546875,-437.6583557128906,1833.333740234375,-435.7090759277344C1831.639892578125,-432.5673522949219,1830.624755859375,-427.48626708984375,1826.7562255859375,-427.4970703125C1825.6927490234375,-427.4999694824219,1824.6849365234375,-427.4855041503906,1823.6519775390625,-427.4864807128906L1817.8424072265625,-427.49298095703125C1816.8323974609375,-427.4947814941406,1814.8597412109375,-427.5879211425781,1813.9716796875,-427.3396911621094C1812.833984375,-427.0168151855469,1811.8023681640625,-426.3146667480469,1811.003173828125,-425.31951904296875C1810.134765625,-424.22119140625,1809.564208984375,-422.9953918457031,1809.443603515625,-421.4862976074219C1809.2916259765625,-419.5843200683594,1809.3829345703125,-417.6485595703125,1809.3841552734375,-415.7410583496094L1809.3812255859375,-404.9368896484375L1809.3818359375,-386.33843994140625C1809.383544921875,-383.4056396484375,1809.3380126953125,-380.43121337890625,1809.3873291015625,-377.49310302734375C1809.447509765625,-373.91693115234375,1811.887451171875,-370.8736572265625,1814.944091796875,-370.49078369140625C1816.50341796875,-370.2952880859375,1818.3404541015625,-370.3736572265625,1819.96337890625,-370.37158203125L1829.2432861328125,-370.3741455078125C1838.4881591796875,-370.3902587890625,1847.9100341796875,-370.2449951171875,1857.1358642578125,-370.38031005859375ZM1845.17626953125,-428.967529296875C1860.317138671875,-429.697021484375,1873.1929931640625,-418.036865234375,1873.9637451171875,-402.8982238769531C1874.73388671875,-387.7598876953125,1863.109619140625,-374.85205078125,1847.9730224609375,-374.0401611328125C1832.7781982421875,-373.22503662109375,1819.81005859375,-384.904296875,1819.0360107421875,-400.1014099121094C1818.2623291015625,-415.29876708984375,1829.9771728515625,-428.2351989746094,1845.17626953125,-428.967529296875ZM1848.690673828125,-418.60614013671875C1850.38671875,-417.9598083496094,1851.573974609375,-416.2912292480469,1852.782470703125,-414.95977783203125L1857.244873046875,-410.07476806640625C1860.88916015625,-406.10638427734375,1864.6466064453125,-402.2067565917969,1868.2908935546875,-398.23291015625C1868.7957763671875,-397.68243408203125,1869.2423095703125,-397.0982666015625,1869.727783203125,-396.5577087402344C1869.84228515625,-398.1985778808594,1870.099853515625,-399.6575012207031,1870.1143798828125,-401.35003662109375C1870.181884765625,-407.0958251953125,1868.11376953125,-412.6622314453125,1864.310546875,-416.97021484375C1860.023681640625,-421.88604736328125,1853.9559326171875,-424.56866455078125,1847.509033203125,-424.9237365722656C1847.0166015625,-424.9507751464844,1845.77685546875,-424.9925537109375,1845.270263671875,-424.9375C1839.322509765625,-424.7874450683594,1833.6707763671875,-422.3122253417969,1829.527099609375,-418.04315185546875C1824.94482421875,-413.30877685546875,1823.022216796875,-406.8572082519531,1823.1156005859375,-400.36676025390625C1823.12158203125,-399.94927978515625,1823.2408447265625,-397.90020751953125,1823.46826171875,-397.6322326660156C1823.7994384765625,-397.8790283203125,1824.0040283203125,-398.2752380371094,1824.2908935546875,-398.57965087890625C1824.7430419921875,-399.0626220703125,1825.177734375,-399.5860595703125,1825.64453125,-400.0544128417969C1825.9569091796875,-400.36865234375,1826.156494140625,-400.69952392578125,1826.4412841796875,-401.00457763671875C1828.2825927734375,-402.97686767578125,1830.117431640625,-405.0028076171875,1832.1309814453125,-406.7983703613281C1832.5579833984375,-407.17926025390625,1833.137451171875,-407.55682373046875,1833.6485595703125,-407.80645751953125C1834.96630859375,-408.4251708984375,1836.8055419921875,-408.3596496582031,1837.9027099609375,-409.3883361816406C1838.5816650390625,-410.0249328613281,1839.31884765625,-410.89471435546875,1839.9293212890625,-411.6015930175781C1840.9796142578125,-412.7996520996094,1842.0030517578125,-414.0211181640625,1842.9989013671875,-415.26495361328125C1844.486572265625,-417.1353454589844,1845.8326416015625,-419.5458679199219,1848.690673828125,-418.60614013671875ZM1824.7762451171875,-393.15557861328125C1826.777099609375,-387.6163330078125,1830.435546875,-383.049072265625,1835.8338623046875,-380.51763916015625L1836.4932861328125,-380.2113037109375C1836.8656005859375,-380.40386962890625,1837.12744140625,-380.44549560546875,1837.5306396484375,-380.53485107421875C1841.3509521484375,-381.67822265625,1845.75244140625,-383.49163818359375,1847.898193359375,-387.1591796875C1848.2493896484375,-387.7598876953125,1848.293212890625,-388.24029541015625,1848.3216552734375,-388.9111328125L1848.28857421875,-388.98590087890625C1847.35693359375,-391.04962158203125,1842.22412109375,-391.3750305175781,1841.2239990234375,-394.6006164550781C1841.0352783203125,-395.2099609375,1841.02783203125,-395.86236572265625,1841.25341796875,-396.46246337890625C1842.3055419921875,-399.2638244628906,1849.402099609375,-400.5532531738281,1848.9693603515625,-402.5111083984375C1848.5947265625,-402.9861145019531,1848.023681640625,-403.3110046386719,1847.5137939453125,-403.6107482910156C1845.956787109375,-404.5257568359375,1844.2686767578125,-405.5003967285156,1843.6832275390625,-407.3238525390625C1843.4693603515625,-407.9897155761719,1843.41796875,-408.4837646484375,1843.3931884765625,-409.19024658203125C1843.3861083984375,-409.40606689453125,1843.401611328125,-409.7833251953125,1843.349853515625,-409.9716491699219C1842.32080078125,-408.3248291015625,1840.554931640625,-406.28179931640625,1838.88427734375,-405.25555419921875C1837.99951171875,-404.71234130859375,1835.9205322265625,-404.7215576171875,1835.116943359375,-404.27972412109375C1834.4879150390625,-403.93292236328125,1833.291748046875,-402.65203857421875,1832.752197265625,-402.0936279296875C1831.030517578125,-400.28009033203125,1829.34228515625,-398.4341125488281,1827.6885986328125,-396.5583801269531C1826.70556640625,-395.43023681640625,1825.77587890625,-394.279052734375,1824.7762451171875,-393.15557861328125ZM1847.3609619140625,-377.7738037109375C1849.338623046875,-378.03125,1850.0855712890625,-378.052978515625,1852.05712890625,-378.53076171875C1852.8392333984375,-378.692138671875,1853.9097900390625,-379.072021484375,1854.668701171875,-379.359130859375C1859.3251953125,-381.1263427734375,1863.3021240234375,-384.3233642578125,1866.02734375,-388.49237060546875C1867.073486328125,-390.0829772949219,1867.532470703125,-391.16802978515625,1868.3388671875,-392.85455322265625C1862.8338623046875,-398.32098388671875,1857.4771728515625,-403.9349365234375,1852.2755126953125,-409.6904296875C1850.8966064453125,-411.2370300292969,1849.505859375,-412.7428283691406,1848.235595703125,-414.3816223144531C1848.01123046875,-414.67120361328125,1847.7215576171875,-415.17962646484375,1847.4072265625,-415.3316650390625C1847.0697021484375,-414.1788024902344,1846.974609375,-409.10638427734375,1847.5321044921875,-408.3256530761719C1849.3955078125,-405.7167663574219,1853.52001953125,-405.6499328613281,1852.8720703125,-401.252685546875C1852.46142578125,-398.4586181640625,1845.87158203125,-396.896484375,1845.3819580078125,-395.63275146484375C1845.395263671875,-394.6972351074219,1847.59765625,-393.84954833984375,1848.349365234375,-393.5684814453125C1856.177001953125,-390.6446228027344,1857.2623291015625,-387.3787841796875,1851.2890625,-381.13885498046875C1850.4937744140625,-380.31451416015625,1849.644775390625,-379.5423583984375,1848.7489013671875,-378.82843017578125C1848.29833984375,-378.4732666015625,1847.7967529296875,-378.13970947265625,1847.3609619140625,-377.7738037109375Z" style="fill: rgb(252, 82, 0); fill-opacity: 1;"/></g></g></svg>